<mxfile host="Electron" agent="Mozilla/5.0 (X11; Linux x86_64) AppleWebKit/537.36 (KHTML, like Gecko) draw.io/24.7.5 Chrome/126.0.6478.183 Electron/31.3.0 Safari/537.36" version="24.7.5">
  <diagram name="Page-1" id="shXLSyLbA40f0a9qD7fm">
    <mxGraphModel dx="1434" dy="822" grid="1" gridSize="10" guides="1" tooltips="1" connect="1" arrows="1" fold="1" page="1" pageScale="1" pageWidth="850" pageHeight="1100" math="0" shadow="0">
      <root>
        <mxCell id="0" />
        <mxCell id="1" parent="0" />
        <mxCell id="3_2kA8sNUcNBmgr7hW5d-4" style="edgeStyle=orthogonalEdgeStyle;rounded=0;orthogonalLoop=1;jettySize=auto;html=1;entryX=0;entryY=0.5;entryDx=0;entryDy=0;" edge="1" parent="1" source="3_2kA8sNUcNBmgr7hW5d-1" target="3_2kA8sNUcNBmgr7hW5d-3">
          <mxGeometry relative="1" as="geometry" />
        </mxCell>
        <mxCell id="3_2kA8sNUcNBmgr7hW5d-1" value="User" style="shape=umlActor;verticalLabelPosition=bottom;verticalAlign=top;html=1;outlineConnect=0;" vertex="1" parent="1">
          <mxGeometry x="150" y="160" width="30" height="60" as="geometry" />
        </mxCell>
        <mxCell id="3_2kA8sNUcNBmgr7hW5d-2" value="" style="shape=cylinder3;whiteSpace=wrap;html=1;boundedLbl=1;backgroundOutline=1;size=15;" vertex="1" parent="1">
          <mxGeometry x="480" y="190" width="60" height="80" as="geometry" />
        </mxCell>
        <mxCell id="3_2kA8sNUcNBmgr7hW5d-3" value="Agora" style="shape=document;whiteSpace=wrap;html=1;boundedLbl=1;" vertex="1" parent="1">
          <mxGeometry x="430" y="150" width="120" height="80" as="geometry" />
        </mxCell>
        <mxCell id="3_2kA8sNUcNBmgr7hW5d-5" value="1) Login with email address&amp;nbsp;&lt;span style=&quot;background-color: initial;&quot;&gt;through&amp;nbsp;&lt;/span&gt;&lt;div&gt;&lt;span style=&quot;background-color: initial;&quot;&gt;OAuth2 or local-first auth&lt;/span&gt;&lt;/div&gt;" style="text;html=1;align=center;verticalAlign=middle;resizable=0;points=[];autosize=1;strokeColor=none;fillColor=none;" vertex="1" parent="1">
          <mxGeometry x="185" y="150" width="220" height="40" as="geometry" />
        </mxCell>
        <mxCell id="3_2kA8sNUcNBmgr7hW5d-7" value="User&#39;s wallet&lt;div&gt;(RariMe or SSI Wallet)&lt;/div&gt;" style="swimlane;whiteSpace=wrap;html=1;startSize=30;" vertex="1" parent="1">
          <mxGeometry x="93.75" y="320" width="142.5" height="150" as="geometry" />
        </mxCell>
        <mxCell id="3_2kA8sNUcNBmgr7hW5d-9" style="edgeStyle=orthogonalEdgeStyle;rounded=0;orthogonalLoop=1;jettySize=auto;html=1;entryX=0;entryY=0.75;entryDx=0;entryDy=0;" edge="1" parent="1" source="3_2kA8sNUcNBmgr7hW5d-7" target="3_2kA8sNUcNBmgr7hW5d-12">
          <mxGeometry relative="1" as="geometry" />
        </mxCell>
        <mxCell id="3_2kA8sNUcNBmgr7hW5d-10" value="2) Associate zk proof to logged-in account,&amp;nbsp;&lt;div&gt;containing disclosure of citizenship&amp;nbsp;&lt;/div&gt;&lt;div&gt;&amp;amp; eventually other attributes as well as a&amp;nbsp;&lt;/div&gt;&lt;div&gt;unique &amp;amp; verifiable yet anonymous identifier&lt;/div&gt;&lt;div&gt;for the scope of the whole Agora app&lt;/div&gt;" style="text;html=1;align=center;verticalAlign=middle;resizable=0;points=[];autosize=1;strokeColor=none;fillColor=none;" vertex="1" parent="1">
          <mxGeometry x="250" y="310" width="260" height="90" as="geometry" />
        </mxCell>
        <mxCell id="3_2kA8sNUcNBmgr7hW5d-11" value="" style="shape=cylinder3;whiteSpace=wrap;html=1;boundedLbl=1;backgroundOutline=1;size=15;" vertex="1" parent="1">
          <mxGeometry x="590" y="375" width="60" height="80" as="geometry" />
        </mxCell>
        <mxCell id="3_2kA8sNUcNBmgr7hW5d-12" value="Agora" style="shape=document;whiteSpace=wrap;html=1;boundedLbl=1;" vertex="1" parent="1">
          <mxGeometry x="540" y="335" width="120" height="80" as="geometry" />
        </mxCell>
        <mxCell id="3_2kA8sNUcNBmgr7hW5d-13" style="edgeStyle=orthogonalEdgeStyle;rounded=0;orthogonalLoop=1;jettySize=auto;html=1;entryX=0;entryY=0.5;entryDx=0;entryDy=0;" edge="1" parent="1" source="3_2kA8sNUcNBmgr7hW5d-14" target="3_2kA8sNUcNBmgr7hW5d-16">
          <mxGeometry relative="1" as="geometry" />
        </mxCell>
        <mxCell id="3_2kA8sNUcNBmgr7hW5d-14" value="User" style="shape=umlActor;verticalLabelPosition=bottom;verticalAlign=top;html=1;outlineConnect=0;" vertex="1" parent="1">
          <mxGeometry x="150" y="540" width="30" height="60" as="geometry" />
        </mxCell>
        <mxCell id="3_2kA8sNUcNBmgr7hW5d-15" value="" style="shape=cylinder3;whiteSpace=wrap;html=1;boundedLbl=1;backgroundOutline=1;size=15;" vertex="1" parent="1">
          <mxGeometry x="490" y="570" width="60" height="80" as="geometry" />
        </mxCell>
        <mxCell id="3_2kA8sNUcNBmgr7hW5d-16" value="Agora" style="shape=document;whiteSpace=wrap;html=1;boundedLbl=1;" vertex="1" parent="1">
          <mxGeometry x="440" y="530" width="120" height="80" as="geometry" />
        </mxCell>
        <mxCell id="3_2kA8sNUcNBmgr7hW5d-17" value="3) Use normal account&amp;nbsp;&lt;div&gt;to interact with app&lt;/div&gt;" style="text;html=1;align=center;verticalAlign=middle;resizable=0;points=[];autosize=1;strokeColor=none;fillColor=none;" vertex="1" parent="1">
          <mxGeometry x="230" y="530" width="150" height="40" as="geometry" />
        </mxCell>
      </root>
    </mxGraphModel>
  </diagram>
</mxfile>
